<svg version="1.1" id="Capa_1" xmlns="http://www.w3.org/2000/svg" xmlns:xlink="http://www.w3.org/1999/xlink" x="0px" y="0px" viewBox="0 0 243.43 63.37" style="enable-background:new 0 0 243.43 63.37;" xml:space="preserve">
<path style="fill:#1D252C;" d="M11.6,5.87c0,3.29-2.51,5.73-5.8,5.73C2.44,11.6,0,9.17,0,5.8C0,2.43,2.44,0,5.87,0
	C9.24,0,11.6,2.43,11.6,5.87 M11.24,48.62H0.36V15.47h10.88V48.62z"></path>
<path style="fill:#1D252C;" d="M30.52,15.47v3.72c2.15-3.65,4.44-5.01,8.45-5.01c3.29,0,6.45,1.22,8.52,3.22
	c2.22,2.29,3.01,5.01,3.01,10.88v20.34H39.61V28.36c0-3.22-1.72-5.16-4.51-5.16s-4.58,2.08-4.58,5.3v20.12H19.63V15.47H30.52z"></path>
<path style="fill:#1D252C;" d="M69.79,48.62H58.91V24.49h-3.29v-9.02h3.29v-0.57C58.83,5.08,63.63,0.57,73.66,0.86v10.1
	c-2.65,0.29-3.86,1.5-3.86,3.94v0.57h3.86v9.02h-3.86V48.62z"></path>
<path style="fill:#1D252C;" d="M91.47,5.87c0,3.29-2.51,5.73-5.8,5.73c-3.36,0-5.8-2.44-5.8-5.8c0-3.36,2.44-5.8,5.87-5.8
	C89.1,0,91.47,2.43,91.47,5.87 M91.11,48.62H80.22V15.47h10.88V48.62z"></path>
<path style="fill:#1D252C;" d="M110.38,15.47v3.72c2.15-3.65,4.44-5.01,8.45-5.01c3.29,0,6.44,1.22,8.52,3.22
	c2.22,2.29,3.01,5.01,3.01,10.88v20.34h-10.88V28.36c0-3.22-1.72-5.16-4.51-5.16s-4.58,2.08-4.58,5.3v20.12H99.5V15.47H110.38z"></path>
<path style="fill:#1D252C;" d="M147.29,34.37c0.79,3.72,3.65,5.94,7.59,5.94c2.93,0,5.37-1.29,6.52-3.65l10.02,2.58
	c-1.65,3.29-2.86,4.8-5.37,6.73c-3.37,2.65-7.09,3.94-11.39,3.94c-10.81,0-18.62-7.52-18.62-18.04c0-10.53,7.3-17.69,18.05-17.69
	c10.95,0,18.33,7.52,18.33,18.83v1.36H147.29z M161.33,28.57c-0.72-3.44-3.3-5.37-7.16-5.37c-3.72,0-6.23,1.93-6.95,5.37H161.33z"></path>
<path style="fill:#1D252C;" d="M189.3,37.45c0,1.58,0.57,2.01,2.65,2.15h1.15v9.02h-8.38c-4.65-0.14-6.37-2.08-6.3-6.87V24.27h-3.36
	v-9.02h3.36V7.09h10.89v8.16h3.79v9.02h-3.79V37.45z"></path>
<polygon style="fill:#1D252C;" points="219.49,15.47 230.95,15.47 212.84,63.37 201.16,63.37 207.11,47.98 195.58,15.47 
	207.11,15.47 212.84,32.87 "></polygon>
<path style="fill:#1D252C;" d="M243.43,43.75c0,3.44-2.58,5.94-6.02,5.94c-3.51,0-6.01-2.51-6.01-6.01c0-3.51,2.51-6.02,6.09-6.02
	C240.92,37.67,243.43,40.24,243.43,43.75"></path>
</svg>